HIERARCHY
ROOT joint_Root
{
	OFFSET 0.0 0.0 0.0
	CHANNELS 6 Xposition Yposition Zposition Zrotation Xrotation Yrotation 
	JOINT Hips
	{
		OFFSET -17.1583 93.1646 452.98
		CHANNELS 6 Xposition Yposition Zposition Zrotation Xrotation Yrotation 
		JOINT Spine
		{
			OFFSET 15.7357 0.0 0.0
			CHANNELS 6 Xposition Yposition Zposition Zrotation Xrotation Yrotation 
			JOINT Chest
			{
				OFFSET 8.98455 -0.406207 0.0
				CHANNELS 6 Xposition Yposition Zposition Zrotation Xrotation Yrotation 
				JOINT Neck
				{
					OFFSET 16.3773 0.0 0.0
					CHANNELS 6 Xposition Yposition Zposition Zrotation Xrotation Yrotation 
					JOINT Head
					{
						OFFSET 6.45672 0.0 0.0
						CHANNELS 6 Xposition Yposition Zposition Zrotation Xrotation Yrotation 
						End Site
						{
							OFFSET 0.0 0.0 0.0
						}
					}
				}
				JOINT Shoulder_L
				{
					OFFSET 12.9942 -0.242716 4.98039
					CHANNELS 6 Xposition Yposition Zposition Zrotation Xrotation Yrotation 
					JOINT UpperArm_L
					{
						OFFSET 5.34809 0.0 0.0
						CHANNELS 6 Xposition Yposition Zposition Zrotation Xrotation Yrotation 
						JOINT LowerArm_L
						{
							OFFSET 24.3286 1.87007e-05 0.0
							CHANNELS 6 Xposition Yposition Zposition Zrotation Xrotation Yrotation 
							JOINT Hand_L
							{
								OFFSET 22.2916 0.0 0.0
								CHANNELS 6 Xposition Yposition Zposition Zrotation Xrotation Yrotation 
								End Site
								{
									OFFSET 0.0 0.0 0.0
								}
							}
						}
					}
				}
				JOINT Shoulder_R
				{
					OFFSET 12.9945 -0.242716 -4.98039
					CHANNELS 6 Xposition Yposition Zposition Zrotation Xrotation Yrotation 
					JOINT UpperArm_R
					{
						OFFSET -5.34813 0.0 0.0
						CHANNELS 6 Xposition Yposition Zposition Zrotation Xrotation Yrotation 
						JOINT LowerArm_R
						{
							OFFSET -24.3289 0.000322201 0.0
							CHANNELS 6 Xposition Yposition Zposition Zrotation Xrotation Yrotation 
							JOINT Hand_R
							{
								OFFSET -22.2915 -0.000108084 0.0
								CHANNELS 6 Xposition Yposition Zposition Zrotation Xrotation Yrotation 
								End Site
								{
									OFFSET 0.0 0.0 0.0
								}
							}
						}
					}
				}
			}
		}
		JOINT UpperLeg_L
		{
			OFFSET -2.19248 -6.46944 0.0
			CHANNELS 6 Xposition Yposition Zposition Zrotation Xrotation Yrotation 
			JOINT LowerLeg_L
			{
				OFFSET 39.0811 0.0 -1.23785e-05
				CHANNELS 6 Xposition Yposition Zposition Zrotation Xrotation Yrotation 
				JOINT Foot_L
				{
					OFFSET 40.9854 0.0 -1.26872e-05
					CHANNELS 6 Xposition Yposition Zposition Zrotation Xrotation Yrotation 
					JOINT Toes_L
					{
						OFFSET 11.7543 0.0 0.0
						CHANNELS 6 Xposition Yposition Zposition Zrotation Xrotation Yrotation 
						End Site
						{
							OFFSET 0.0 0.0 0.0
						}
					}
				}
			}
		}
		JOINT UpperLeg_R
		{
			OFFSET -2.19251 6.46944 0.0
			CHANNELS 6 Xposition Yposition Zposition Zrotation Xrotation Yrotation 
			JOINT LowerLeg_R
			{
				OFFSET -39.0811 -0.00228153 -0.0401928
				CHANNELS 6 Xposition Yposition Zposition Zrotation Xrotation Yrotation 
				JOINT Foot_R
				{
					OFFSET -40.9854 0.0 0.0
					CHANNELS 6 Xposition Yposition Zposition Zrotation Xrotation Yrotation 
					JOINT Toes_R
					{
						OFFSET -11.7543 0.0 0.0
						CHANNELS 6 Xposition Yposition Zposition Zrotation Xrotation Yrotation 
						End Site
						{
							OFFSET 0.0 0.0 0.0
						}
					}
				}
			}
		}
	}
}
MOTION
Frames:	9
Frame Time:	0.0333333
0.000000 0.000000 0.000000 0.000000 0.000000 -0.000000 -2.612370 91.224000 7.281740 86.688100 -3.643690 9.890450 15.735700 0.000005 -0.000001 -121.998000 89.553400 123.572000 8.984550 -0.406207 -0.000000 -8.525140 0.248291 3.175430 16.377300 -0.000001 -0.000001 -1.569350 1.569690 1.770490 6.456720 -0.000001 -0.000000 6.019130 3.750800 5.159340 12.994200 -0.242716 4.980390 -88.697400 -2.618000 -63.535800 5.348090 -0.000007 -0.000001 -68.682900 -59.365200 -112.500000 24.328600 0.000019 0.000005 -0.005356 -0.859336 -0.360195 22.291600 -0.000001 0.000005 56.968500 4.088150 22.961000 12.994500 -0.242716 -4.980390 92.096100 -4.250110 -63.717200 -5.348130 -0.000001 -0.000004 -60.780200 -58.421100 -110.773000 -24.328900 0.000322 -0.000009 -0.001052 -15.942200 -0.000089 -22.291500 -0.000108 -0.000004 48.435500 5.436910 -4.178300 -2.192480 -6.469440 -0.000000 -168.775000 -7.895800 12.118400 39.081100 -0.000007 -0.000012 0.033642 -0.090990 20.290900 40.985400 -0.000006 -0.000013 -0.935704 12.722900 -74.952800 11.754300 -0.000000 0.000003 -0.002020 0.196592 -8.600850 -2.192510 6.469440 -0.000001 178.820000 3.221040 -168.211000 -39.081100 -0.002282 -0.040193 0.071851 -0.202046 18.735300 -40.985400 0.000008 0.000006 -2.393760 7.770550 -75.774100 -11.754300 -0.000006 -0.000006 -0.011843 0.284599 -5.006880
0.000000 0.000000 0.000000 0.000000 0.000000 -0.000000 -2.555360 91.220000 7.331060 86.717800 -3.685480 9.849590 15.735700 0.000005 -0.000001 -122.329000 89.538100 123.896000 8.984550 -0.406207 -0.000000 -8.548540 0.269686 3.162210 16.377300 -0.000001 -0.000001 -1.688340 1.584280 1.743190 6.456720 -0.000001 -0.000000 6.030810 3.748770 5.208370 12.994200 -0.242716 4.980390 -88.708600 -2.591980 -63.503300 5.348090 -0.000007 -0.000001 -68.480300 -59.401100 -112.353000 24.328600 0.000019 0.000005 -0.006234 -1.153280 -0.311980 22.291600 -0.000001 0.000005 56.879000 4.092690 22.894900 12.994500 -0.242716 -4.980390 92.090700 -4.235880 -63.699300 -5.348130 -0.000001 -0.000004 -60.915200 -58.292300 -110.946000 -24.328900 0.000322 -0.000009 -0.001056 -16.287700 -0.000091 -22.291500 -0.000108 -0.000004 48.194500 5.443260 -4.400770 -2.192480 -6.469440 -0.000000 -168.834000 -7.993770 12.124000 39.081100 -0.000007 -0.000012 0.035334 -0.095575 20.289500 40.985400 -0.000006 -0.000013 -0.889759 12.721800 -75.058200 11.754300 -0.000000 0.000003 -0.002444 0.201772 -8.390140 -2.192510 6.469440 -0.000001 178.750000 3.178620 -168.201000 -39.081100 -0.002282 -0.040193 0.071319 -0.201066 18.684200 -40.985400 0.000008 0.000006 -2.399910 7.799560 -75.747900 -11.754300 -0.000006 -0.000006 -0.011415 0.281591 -5.130060
0.000000 0.000000 0.000000 0.000000 0.000000 -0.000000 -2.502130 91.218800 7.388810 86.710000 -3.708120 9.847430 15.735700 0.000005 -0.000001 -122.927000 89.538400 124.499000 8.984550 -0.406207 -0.000000 -8.542880 0.276880 3.171490 16.377300 -0.000001 -0.000001 -1.729760 1.605870 1.728440 6.456720 -0.000001 -0.000000 5.962280 3.756160 5.204230 12.994200 -0.242716 4.980390 -88.707900 -2.592070 -63.492500 5.348090 -0.000007 -0.000001 -68.635100 -59.364800 -112.422000 24.328600 0.000019 0.000005 -0.006181 -1.013150 -0.352250 22.291600 -0.000001 0.000005 56.830700 4.094120 22.874200 12.994500 -0.242716 -4.980390 92.097000 -4.242940 -63.668700 -5.348130 -0.000001 -0.000004 -60.928000 -58.156800 -111.023000 -24.328900 0.000322 -0.000009 -0.001054 -16.293600 -0.000091 -22.291500 -0.000108 -0.000004 48.231800 5.446490 -4.514720 -2.192480 -6.469440 -0.000000 -168.899000 -7.923910 12.187600 39.081100 -0.000007 -0.000012 0.036488 -0.098965 20.239000 40.985400 -0.000006 -0.000013 -0.876632 12.588200 -75.061700 11.754300 -0.000000 0.000003 -0.002367 0.200850 -8.427670 -2.192510 6.469440 -0.000001 178.675000 3.208000 -168.131000 -39.081100 -0.002282 -0.040193 0.066072 -0.186374 18.607200 -40.985400 0.000008 0.000006 -2.588860 7.929580 -75.680800 -11.754300 -0.000006 -0.000006 -0.011792 0.284239 -5.021630
0.000000 0.000000 0.000000 0.000000 0.000000 -0.000000 -2.459730 91.218500 7.440510 86.684100 -3.771420 9.829190 15.735700 0.000005 -0.000001 -124.038000 89.530700 125.617000 8.984550 -0.406207 -0.000000 -8.546060 0.299305 3.187080 16.377300 -0.000001 -0.000001 -1.790450 1.651450 1.729980 6.456720 -0.000001 -0.000000 5.934940 3.789370 5.219490 12.994200 -0.242716 4.980390 -88.710300 -2.584710 -63.470800 5.348090 -0.000007 -0.000001 -68.506400 -59.410400 -112.340000 24.328600 0.000019 0.000005 -0.005625 -1.061090 -0.306287 22.291600 -0.000001 0.000005 56.692800 4.099750 22.792200 12.994500 -0.242716 -4.980390 92.100400 -4.249110 -63.664800 -5.348130 -0.000001 -0.000004 -60.597500 -58.114900 -110.816000 -24.328900 0.000322 -0.000009 -0.001054 -16.277100 -0.000091 -22.291500 -0.000108 -0.000004 48.092800 5.447800 -4.561250 -2.192480 -6.469440 -0.000000 -168.918000 -7.914490 12.255400 39.081100 -0.000007 -0.000012 0.037074 -0.100896 20.175900 40.985400 -0.000006 -0.000013 -0.857352 12.516600 -75.063100 11.754300 -0.000000 0.000003 -0.002177 0.198541 -8.521570 -2.192510 6.469440 -0.000001 178.661000 3.145030 -168.078000 -39.081100 -0.002282 -0.040193 0.061468 -0.173623 18.514900 -40.985400 0.000008 0.000006 -2.737660 7.982770 -75.612700 -11.754300 -0.000006 -0.000006 -0.012072 0.286185 -4.941930
0.000000 0.000000 0.000000 0.000000 0.000000 -0.000000 -2.425730 91.219400 7.476240 86.653600 -3.794270 9.733460 15.735700 0.000005 -0.000001 -123.934000 89.516200 125.518000 8.984550 -0.406207 -0.000000 -8.571200 0.312867 3.199150 16.377300 -0.000001 -0.000001 -1.844010 1.668130 1.748320 6.456720 -0.000001 -0.000000 5.900130 3.786600 5.200960 12.994200 -0.242716 4.980390 -88.710300 -2.586660 -63.487500 5.348090 -0.000007 -0.000001 -68.441700 -59.494200 -112.258000 24.328600 0.000019 0.000005 -0.006308 -1.071750 -0.339733 22.291600 -0.000001 0.000005 56.523400 4.096620 22.837800 12.994500 -0.242716 -4.980390 92.103700 -4.252080 -63.645400 -5.348130 -0.000001 -0.000004 -60.482300 -58.045100 -110.758000 -24.328900 0.000322 -0.000009 -0.001052 -16.136400 -0.000090 -22.291500 -0.000108 -0.000004 48.006600 5.448390 -4.582480 -2.192480 -6.469440 -0.000000 -168.919000 -7.950490 12.188300 39.081100 -0.000007 -0.000012 0.037196 -0.101291 20.164100 40.985400 -0.000006 -0.000013 -0.835042 12.502200 -75.034300 11.754300 -0.000000 0.000003 -0.002045 0.196906 -8.588100 -2.192510 6.469440 -0.000001 178.670000 3.124320 -168.128000 -39.081100 -0.002282 -0.040193 0.057934 -0.163776 18.440700 -40.985400 0.000008 0.000006 -2.825040 8.003850 -75.515400 -11.754300 -0.000006 -0.000006 -0.011692 0.283542 -5.050200
0.000000 0.000000 0.000000 0.000000 0.000000 -0.000000 -2.387320 91.225500 7.497590 86.670100 -3.813890 9.676010 15.735700 0.000005 -0.000001 -125.395000 89.501300 126.957000 8.984550 -0.406207 -0.000000 -8.582070 0.353286 3.158270 16.377300 -0.000001 -0.000001 -1.847220 1.669090 1.739940 6.456720 -0.000001 -0.000000 5.866830 3.752790 5.273230 12.994200 -0.242716 4.980390 -88.710500 -2.589650 -63.517000 5.348090 -0.000007 -0.000001 -68.449300 -59.488600 -112.294000 24.328600 0.000019 0.000005 -0.006297 -0.981297 -0.370368 22.291600 -0.000001 0.000005 56.675800 4.094470 22.869000 12.994500 -0.242716 -4.980390 92.098300 -4.240630 -63.641700 -5.348130 -0.000001 -0.000004 -60.452800 -57.971800 -110.708000 -24.328900 0.000322 -0.000009 -0.001053 -16.092300 -0.000090 -22.291500 -0.000108 -0.000004 48.210800 5.443180 -4.397630 -2.192480 -6.469440 -0.000000 -169.000000 -7.886360 12.201600 39.081100 -0.000007 -0.000012 0.038550 -0.105497 20.073000 40.985400 -0.000006 -0.000013 -0.830754 12.412800 -75.057100 11.754300 -0.000000 0.000003 -0.002138 0.198062 -8.541080 -2.192510 6.469440 -0.000001 178.611000 3.119080 -168.150000 -39.081100 -0.002282 -0.040193 0.055096 -0.155699 18.392600 -40.985400 0.000008 0.000006 -2.977240 8.055370 -75.501400 -11.754300 -0.000006 -0.000006 -0.012081 0.286247 -4.939410
0.000000 0.000000 0.000000 0.000000 0.000000 -0.000000 -2.360530 91.222100 7.521500 86.666500 -3.793640 9.630550 15.735700 0.000005 -0.000001 -126.654000 89.509800 128.195000 8.984550 -0.406207 -0.000000 -8.555780 0.364303 3.116450 16.377300 -0.000001 -0.000001 -1.820610 1.661660 1.733180 6.456720 -0.000001 -0.000000 5.783290 3.744920 5.336390 12.994200 -0.242716 4.980390 -88.707700 -2.590390 -63.474100 5.348090 -0.000007 -0.000001 -68.348400 -59.457100 -112.290000 24.328600 0.000019 0.000005 -0.006364 -1.195160 -0.307344 22.291600 -0.000001 0.000005 56.738200 4.101140 22.772000 12.994500 -0.242716 -4.980390 92.097500 -4.240160 -63.648500 -5.348130 -0.000001 -0.000004 -60.262300 -57.974300 -110.503000 -24.328900 0.000322 -0.000009 -0.001054 -16.001200 -0.000089 -22.291500 -0.000108 -0.000004 48.071300 5.438960 -4.249510 -2.192480 -6.469440 -0.000000 -169.019000 -7.903370 12.146600 39.081100 -0.000007 -0.000012 0.039033 -0.106577 20.115100 40.985400 -0.000006 -0.000013 -0.806428 12.415000 -75.137700 11.754300 -0.000000 0.000003 -0.002368 0.200863 -8.427130 -2.192510 6.469440 -0.000001 178.589000 3.155910 -168.156000 -39.081100 -0.002282 -0.040193 0.054266 -0.153685 18.338800 -40.985400 0.000008 0.000006 -2.905060 8.041890 -75.470000 -11.754300 -0.000006 -0.000006 -0.011786 0.284201 -5.023210
0.000000 0.000000 0.000000 0.000000 0.000000 -0.000000 -2.331000 91.219100 7.538200 86.651100 -3.830920 9.573870 15.735700 0.000005 -0.000001 -129.058000 89.515600 130.597000 8.984550 -0.406207 -0.000000 -8.521790 0.390114 3.113530 16.377300 -0.000001 -0.000001 -1.840130 1.703420 1.707680 6.456720 -0.000001 -0.000000 5.796710 3.734050 5.307400 12.994200 -0.242716 4.980390 -88.709000 -2.584740 -63.447600 5.348090 -0.000007 -0.000001 -68.426300 -59.453800 -112.325000 24.328600 0.000019 0.000005 -0.006932 -1.160860 -0.344476 22.291600 -0.000001 0.000005 56.544400 4.106000 22.701100 12.994500 -0.242716 -4.980390 92.100700 -4.241360 -63.619700 -5.348130 -0.000001 -0.000004 -60.162900 -57.917700 -110.393000 -24.328900 0.000322 -0.000009 -0.001053 -15.968400 -0.000089 -22.291500 -0.000108 -0.000004 48.094300 5.439570 -4.270760 -2.192480 -6.469440 -0.000000 -169.008000 -7.972630 12.115900 39.081100 -0.000007 -0.000012 0.036534 -0.099813 20.104200 40.985400 -0.000006 -0.000013 -0.767960 12.467600 -75.061500 11.754300 -0.000000 0.000003 -0.002145 0.198142 -8.537810 -2.192510 6.469440 -0.000001 178.590000 3.125620 -168.212000 -39.081100 -0.002282 -0.040193 0.054694 -0.154874 18.350000 -40.985400 0.000008 0.000006 -3.005260 8.087740 -75.464700 -11.754300 -0.000006 -0.000006 -0.011908 0.285048 -4.988500
0.000000 0.000000 0.000000 0.000000 0.000000 -0.000000 -2.302900 91.224600 7.546350 86.655900 -3.882190 9.482680 15.735700 0.000005 -0.000001 -129.770000 89.512800 131.301000 8.984550 -0.406207 -0.000000 -8.518650 0.404086 3.099390 16.377300 -0.000001 -0.000001 -1.767470 1.737860 1.692230 6.456720 -0.000001 -0.000000 5.756440 3.782680 5.273820 12.994200 -0.242716 4.980390 -88.722900 -2.554840 -63.428700 5.348090 -0.000007 -0.000001 -68.363900 -59.493100 -112.282000 24.328600 0.000019 0.000005 -0.006583 -1.207420 -0.314650 22.291600 -0.000001 0.000005 56.603900 4.102610 22.750500 12.994500 -0.242716 -4.980390 92.122000 -4.285710 -63.627100 -5.348130 -0.000001 -0.000004 -59.999400 -57.841300 -110.154000 -24.328900 0.000322 -0.000009 -0.001052 -15.911300 -0.000089 -22.291500 -0.000108 -0.000004 48.233400 5.437250 -4.189870 -2.192480 -6.469440 -0.000000 -169.097000 -7.908020 12.044100 39.081100 -0.000007 -0.000012 0.039613 -0.108322 20.087100 40.985400 -0.000006 -0.000013 -0.779959 12.300500 -75.123000 11.754300 -0.000000 0.000003 -0.002219 0.199053 -8.500770 -2.192510 6.469440 -0.000001 178.551000 3.118320 -168.277000 -39.081100 -0.002282 -0.040193 0.053437 -0.151535 18.299200 -40.985400 0.000008 0.000006 -3.056290 8.146020 -75.442500 -11.754300 -0.000006 -0.000006 -0.011801 0.284301 -5.019100
